<?xml version="1.0" encoding="UTF-8"?>
<svg id="Layer_23" xmlns="http://www.w3.org/2000/svg" version="1.1" xmlns:xlink="http://www.w3.org/1999/xlink" viewBox="0 0 300 250">
  <!-- Generator: Adobe Illustrator 29.8.2, SVG Export Plug-In . SVG Version: 2.1.1 Build 3)  -->
  <defs>
    <style>
      .st0, .st1 {
        fill: none;
      }

      .st0, .st1, .st2 {
        stroke: #663693;
      }

      .st0, .st2 {
        stroke-miterlimit: 10;
      }

      .st1 {
        stroke-linecap: round;
        stroke-linejoin: round;
      }

      .st2 {
        fill: #fff;
      }

      .st3 {
        clip-path: url(#clippath);
      }
    </style>
    <clipPath id="clippath">
      <line class="st0" x1="122.29" y1="163.66" x2="44.55" y2="163.66"/>
    </clipPath>
  </defs>
  <g>
    <line class="st2" x1="122.29" y1="163.66" x2="44.55" y2="163.66"/>
    <g>
      <g class="st3">
        <path class="st2" d="M64.63,211.06c-2.32,0-3.75-1.07-4.79-2.29v6.59h-4.35v-19.94h4.35v2.21c1.06-1.44,2.52-2.49,4.79-2.49,3.58,0,6.99,2.8,6.99,7.94v.05c0,5.13-3.35,7.94-6.99,7.94M67.27,203.07c0-2.56-1.72-4.25-3.75-4.25s-3.73,1.69-3.73,4.25v.05c0,2.55,1.69,4.24,3.73,4.24s3.75-1.66,3.75-4.24v-.05Z"/>
        <path class="st2" d="M78.58,211.06c-2.15,0-4.56-.72-6.58-2.31l1.86-2.87c1.66,1.2,3.41,1.83,4.84,1.83,1.26,0,1.84-.45,1.84-1.15v-.05c0-.94-1.5-1.26-3.18-1.78-2.15-.63-4.59-1.64-4.59-4.62v-.05c0-3.13,2.52-4.88,5.61-4.88,1.95,0,4.07.66,5.73,1.78l-1.66,3.01c-1.52-.9-3.04-1.43-4.15-1.43-1.06,0-1.6.45-1.6,1.05v.06c0,.86,1.46,1.27,3.12,1.84,2.14.71,4.64,1.74,4.64,4.55v.06c0,3.41-2.55,4.96-5.87,4.96"/>
        <path class="st2" d="M92.91,193.32c-1,0-1.57.52-1.57,1.67v.6h3.52v3.55h-3.47v11.63h-4.35v-11.63h-1.81v-3.57h1.81v-.99c0-3.38,1.68-4.92,4.75-4.92,1.38,0,2.29.17,3.1.43v3.61c-.63-.24-1.24-.37-1.98-.37"/>
        <polygon class="st2" points="106.36 210.77 102.36 204.49 100.85 206.1 100.85 210.77 96.5 210.77 96.5 189.86 100.85 189.86 100.85 201 105.95 195.42 111.16 195.42 105.31 201.46 111.36 210.77 106.36 210.77"/>
      </g>
      <line class="st0" x1="122.29" y1="163.66" x2="44.55" y2="163.66"/>
    </g>
  </g>
  <path class="st1" d="M196.48,79.01v2.79M179.77,72.31l16.72,6.7,19.72-2.78M199.23,82.51l16.98-1.63v-4.66l-11.88-4.49-24.55.57v4.86l13.2,4.99M151.91,95.73l18.46-14.84M155.35,94.34l16.32-11.49,23.25,1.02-13.06,11.87-26.51-1.39ZM194.26,92.9l5.62-5.62,7.28.52-5.62,5.94-7.28-.84ZM151.91,97.47v-1.74l52.41,3.31s2.84.17,4.05-1.05c1.77-1.76,14.77-14.13,14.77-14.13M136.15,45.88l14.5,47.02,18.28-13.06-12.84-43.75-19.94,9.79ZM133.67,43.14l16.5,55.11,1.74-.78.7,2.22,54.55,2.57s1.21-.16,2.78-2.02c1.57-1.86,13.71-13.75,13.71-13.75v-2.61l-53.28-3-14.28-47.93-22.42,10.19ZM76.86,76.23v13.49M70.24,68.39l6.62,7.84h44.23M83.2,66.48s-3.99.26-3.9,3.31c.09,3.05,7.6,3.65,11.37,3.52,3.78-.13,8-1.08,8.24-4.65-.37-1.88-3.24-2.74-3.24-2.74M94.45,62.12s1.57-2.35,2.96-1.92c1.39.43.7,1.74,0,2.35-.7.61-2.96,3.05-2.96,3.05v-3.48ZM82.87,59.25s1.83.96,5.48.96,6.09-1.27,6.09-1.27M82.43,58.9l.96,9.4s1.13,1.48,5.48,1.48,5.31-1.48,5.31-1.48v-1.22s5.57-3.92,4.61-6.44-4.7.18-4.7.18l.43-2.35s-1.48-.96-6.53-.96-5.57,1.39-5.57,1.39ZM176.11,188.8v34.65l-160.89,15.67M16.12,188.09l16.86-.86-17.76-26.81M148.31,165.48l-25.35-23.33M16.12,202.38l160-13.58-20.98-17.6M16.12,147.53l32.6-1.75M54.09,145.5l22.99-1.23M85.15,143.83l31.44-1.68M115.91,149.82l-15.71.5.78,1.22,24.38-1.22v-1.22h-2.99M154.69,178.95v-1.17M147.64,179.37v-1.17M48.48,152.32l-16.72.78.87.96,23.85-.96-.7-1.22h-2.02M75.72,188.09l.1-.86M115.86,150.79l2.44-29.09M117.08,150.73l2.44-29.29M122.31,150.47l2.28-29.03M151.04,120.06l-3.48,58.12-16.8.7.7,1.22,26.29-1.22-.61-1.31-2.41.18,3.64-57.69M151.91,120.32l-3.48,58.98M50.96,108.01l26.45,25.25M50.96,102.26l26.63,25.07M55.79,112.61l-2.09,40.49M51.05,99.34l-1.69,53.76M50.24,98.63l-1.76,54.47M77.73,122.57l-1.91,64.66-17.76,1.05v1.22l28.39-2.26v-.7l-3.96.17M82.43,187.5l4.01-64.49M78.6,113.4v9.92l-1.74,64.67M38.2,78.06l40.4,35.35,195.37-7.84M98.91,68.3h10.69l11.49,6.79v13.76l-44.58.87-6.27-10.27v-11.06l9.41-.09M216.51,78.06l57.46,27.51v9.75l-195.37,8.01-40.4-35.17v-10.1l32.04-.89M121.09,75.74l22.34-.57M168.4,74.45l11.36-.31"/>
</svg>