<?xml version="1.0" encoding="UTF-8"?>
<svg id="Layer_23" xmlns="http://www.w3.org/2000/svg" version="1.1" viewBox="0 0 300 250">
  <!-- Generator: Adobe Illustrator 29.8.2, SVG Export Plug-In . SVG Version: 2.1.1 Build 3)  -->
  <defs>
    <style>
      .st0 {
        fill: none;
        stroke: #663693;
        stroke-linecap: round;
        stroke-linejoin: round;
        stroke-width: 1.62px;
      }
    </style>
  </defs>
  <path class="st0" d="M56.25,79.16h15.14M83.98,47.75h-13.32l-14.41,31.41,14.41,132.75,10.31.31M211.92,61.92s0,2.59,5.53,3.2c5.52.61,20.01,1.84,22.83-1.6M238.32,64.62l1.47-33.98s-1.1-2.06,3.81-1.59c.86.96-2.09,35.57-2.09,35.57l-10.56,149.54s-1.96,5.4-9.33,5.04c-7.37-.37-17.84,1.09-17.43-7M210.08,32.7s-15.85,2.58-21.37-.55M217.45,32.7s15.34,1.59,22.34,0M216.22,29.05l-2.7,34.84M213.52,30.64s.73-2.99,2.09-2.49c1.35.5,1.72.79,1.84,2.61.12,1.82-2.82,33.78-2.82,33.78M180.61,63.27s-.25,2.22,10.56,2.46c10.8.25,16.57.13,18.17-1.84M207.25,64.62l2.82-31.93s-.24-2.2.61-2.82c.86-.61,1.97-1.06,2.83.76-.12,3.78-2.58,31.28-2.58,31.28l.12,12.9-6.88,137.38s-2.58,6.51-3.68,7.12c-1.1.61-17.8.92-19.89-.89-2.09-1.81-3.56-5.62-3.56-5.62M187.61,28.16s-4.05,24.07-4.05,26.4-.74,9.33-.74,9.33l1.36-7s2.2-13.75,2.25-15.96c.06-2.21,2.16-8.23,2.16-8.23,0,0,.61-3.92-.98-4.54-1.59-.62-3.45,1.98-3.45,1.98M161.71,31.6s8.39,1.66,19.6.89M176.34,63.89l5.51-34.74s1.23-1.6,2.21-.74c.98.86-3.86,32.04-3.86,32.04,0,0-.56,2.7-.69,5.53-.12,2.82-2.46,146.83-2.46,146.83,0,0-.49,3.44-3.19,4.42-2.7.98-18.42,3.31-21.85-3.44M151.37,61.92s-1.2,2.34,9.48,2.59c10.68.25,15.1.24,16.57-1.29M160.85,27.67l-7.73,33.64M158.39,30.77s1.6-3.71,2.46-3.09c.86.61.86,3.93.86,3.93l-6.72,32.29M88.29,66.65s4.54,3.38,12.03,3.01c7.49-.37,16.08-2.45,16.08-2.45M119.23,66.65s3.07,3.01,13.63,2.03c10.56-.98,16.57-2.03,16.57-2.03M132.86,34.41s16.84,2.22,22.23-.6M132.53,31.6l-11.21,32.29M129.17,31.28s.86-.97,2.45-.51c1.6.47,1.23,3.65,1.23,3.65l-11.1,32.24M122.54,216.98s1.23,2.95,14.48,2.95,14.98-6.14,14.98-6.14l-1.23-149.29,7.61-33.74h-2.58l-8.47,35.46s-19.52,2.46-26.21.25l-.98-.98M88.66,65.73s4.66,2.95,13.75,2.46c9.08-.49,13.08-2.46,13.08-2.46l10.99-34.13s.25-1.64,2.7-.33l-10.56,34.46s-.49,3.93-.49,9.82,2.21,63.6,2.21,63.6l2.21,77.83v1.72s-4.91,3.44-12.52,3.68c-7.61.25-13.91-4.66-13.91-4.66l-6.22-104.84s-1.72-41.01-2.21-43.95c-.49-2.95,1.72-8.35,1.72-8.35l12.03-28.97s1.97-.74,3.19,0v2.21l-13.44,31.92M104.62,33.81s13.28,2.7,20.88,0M104.62,31.6l-14.86,32.9M71.39,81.52s.24-7.68,2-12.1c1.76-4.42,12.16-24.78,12.16-24.78l9.77,1.21M95.33,212.76l-14.36-.54-9.57-130.71h16.94"/>
</svg>