<?xml version="1.0" encoding="UTF-8"?>
<svg id="Layer_23" xmlns="http://www.w3.org/2000/svg" version="1.1" viewBox="0 0 300 250">
  <!-- Generator: Adobe Illustrator 29.8.2, SVG Export Plug-In . SVG Version: 2.1.1 Build 3)  -->
  <defs>
    <style>
      .st0 {
        fill: none;
        stroke: #663693;
        stroke-linecap: round;
        stroke-linejoin: round;
      }
    </style>
  </defs>
  <path class="st0" d="M207.65,219.52v1.08l36.2-1.02s1.13,0,1.08-1.18M165.53,218.12s-.11,1.78,2.04,1.72c2.15-.06,35.34.59,35.34.59l.11-.86M239.44,150.26s-1.86,7.02-11.7,10.01M237.82,148.65s-6.05,7.42-15.98,11.38M230.89,137.11s-1.21,10.17-19.28,16.14M239.03,117.66c-3.07,13.96-5.41,15.17-6.21,16.06M237.74,116.05s-2.18,12.35-6.62,17.19M170.37,139.85c.75.32,10.65,19.53,34.32,13.5,23.67-6.02,25.5-18.29,25.5-18.29M210.17,106.88s4.95,12.26,7.1,11.73,14.95-7.32,14.95-7.32M208.56,106.77l5.92,11.94s1.72,2.26,4.52,1.29c2.8-.97,15.6-8.29,15.6-8.29M201.25,106.98c.11.43,12.37,31.2,10.65,37.76M202.54,106.88s11.51,32.17,10.01,36.58c-1.51,4.41-3.12,6.13-5.81,6.78M170.37,122.8s7.53,22.16,28.08,19.37c4.52-1.4,3.87-5.38,2.58-9.79M170.69,119.36s6.62,20.98,24.85,21.95c6.45-.48,4.68-5.97,3.87-8.07-.81-2.1-8.88-25.5-7.59-26.3M240.25,150.83l-7.1-6.29-3.71-11.78,11.13,4.04M180.7,106.77h50.35l9.68,13.07v29.85s-1.61,10.49-10.49,10.49h-48.73s-11.3-.97-11.3-10.65v-29.53l10.49-13.23ZM245.89,160.83c0,2.14-1.73,3.87-3.87,3.87h-71.98c-2.14,0-3.87-1.73-3.87-3.87v-53.74c0-2.14,1.73-3.87,3.87-3.87h71.98c2.14,0,3.87,1.73,3.87,3.87v53.74ZM166.28,88.91h-3.76s-3.12.32-3.12,5.38v77.78s.59,3.98,5.01,3.98M166.18,90.79v5.33s.75,3.76,3.66,3.76h73.16s1.94-.64,1.94-2.9v-6.19M166.18,88.05v2.74h78.75v-2.9M252.51,172.29c0,2.14-1.73,3.87-3.87,3.87h-86.66c-2.14,0-3.87-1.73-3.87-3.87v-80.53c0-2.14,1.73-3.87,3.87-3.87h86.66c2.14,0,3.87,1.73,3.87,3.87v80.53ZM247.35,58.44s-2.1,4.38-2.64,4.11c-.54-.27-1.02-.32-.76-4.3M154.63,58.12s3.04,4.01,3.26,5.3c.11-.21,1.5.91.81-3.07M242.67,61.48s-2.37,3.55-2.47,4.84M159.61,61.48s1.83,2.58,2.37,4.73M159.61,61.48l-2.58-3.23h86.93l-1.29,3.23h-83.05ZM185.22,66.21l2.47-3.34h28.62l2.37,3.23M152.51,67.82s2.58-1.51,6.35-1.51h95.97s2.9,1.83,2.9,5.06M151.65,75.68s1.94-3.23,4.52-3.23h97.8s4.19,1.08,4.19,3.55M234.6,30.04s8.47,17.99,8.23,22.67c-.65,1.53-2.42,1.29-4.68,1.29h-77.86M158.91,53.43s4.11-21.7,7.5-23.56M154.63,58.12s2.66-20.42,8.79-26.38c2.1-1.94,3.55-2.1,4.2-2.1h64.47s4.28-.65,6.86,4.76c2.58,5.41,8.71,16.22,8.39,24.05,4.92,4.68,11.46,8.31,11.78,11.13.32,2.83,0,13.4,0,13.4h-108.12v-8.39s.4-12.91,3.63-16.46ZM248.82,218.2s3.07,2.74,5.01-.24M157.81,217.82s1.21,2.34,3.79.32M151.11,213.92s29.85,2.26,56.48,2.26,51.4-2.42,51.4-2.42M150.9,82.99v134.16s30.55,2.42,59.11,2.42,49.22-2.42,49.22-2.42V82.99M138.66,218.2s3.07,2.74,5-.24M47.64,217.82s1.21,2.34,3.79.32M40.95,213.92s29.85,2.26,56.48,2.26,51.4-2.42,51.4-2.42M40.73,82.99v134.16s30.55,2.42,59.12,2.42,49.22-2.42,49.22-2.42V82.99M143.26,94.99h-6.53v-8.47h6.53v8.47ZM216.73,42.02c0,.6-.49,1.09-1.09,1.09s-1.09-.49-1.09-1.09.49-1.09,1.09-1.09,1.09.49,1.09,1.09ZM189.17,42.02c0,.6-.49,1.09-1.09,1.09s-1.09-.49-1.09-1.09.49-1.09,1.09-1.09,1.09.49,1.09,1.09ZM210.9,45.69h-5.74v-3.63h5.74v3.63ZM204.44,45.69h-5.74v-3.63h5.74v3.63ZM197.97,45.69h-5.74v-3.63h5.74v3.63ZM210.9,41.25h-5.74v-3.63h5.74v3.63ZM204.44,41.25h-5.74v-3.63h5.74v3.63ZM197.97,41.25h-5.74v-3.63h5.74v3.63ZM190.84,48.25h21.52v-12.37h-21.52v12.37ZM184.38,36.41v12.37s.21,1.83,2.47,1.83h29.91s1.72-.54,1.72-2.47v-11.51s0-2.26-2.58-2.26h-28.94s-2.58.11-2.58,2.05ZM116.11,42.02c0,.6-.49,1.09-1.09,1.09s-1.09-.49-1.09-1.09.49-1.09,1.09-1.09,1.09.49,1.09,1.09ZM88.55,42.02c0,.6-.49,1.09-1.09,1.09s-1.09-.49-1.09-1.09.49-1.09,1.09-1.09,1.09.49,1.09,1.09ZM110.28,45.69h-5.74v-3.63h5.74v3.63ZM103.82,45.69h-5.74v-3.63h5.74v3.63ZM97.35,45.69h-5.74v-3.63h5.74v3.63ZM110.28,41.25h-5.74v-3.63h5.74v3.63ZM103.82,41.25h-5.74v-3.63h5.74v3.63ZM97.35,41.25h-5.74v-3.63h5.74v3.63ZM58.91,53.84s-.43-1.61.11-3.76,7.42-19.58,8.5-20.23M56.12,65.89l8.82-7.21s69.93,1.94,70.25,2.05c.32.11,2.15,5.38,2.15,5.38M83.87,66.1s-.86-2.8,18.07-2.8,14.73,2.76,14.73,2.76M90.22,48.25h21.52v-12.37h-21.52v12.37ZM52.99,66c.54.11,87.14.21,87.14.21M49.34,66.96v9.36s0,3.23,4.3,3.23h85.21s2.69-1.4,2.69-4.09c.54-8.71.54-9.25.54-9.25l-1.08.11-1.51-6.67-75.95-2.15-11.84,8.39h-2.37v1.08ZM57.73,58.04s-.43-4.63,2.58-4.63h78.97s4.2-.22,4.2,6.02M83.77,36.41v12.37s.21,1.83,2.47,1.83h29.91s1.72-.54,1.72-2.47v-11.51s0-2.26-2.58-2.26h-28.94s-2.58.11-2.58,2.05ZM146.7,59.33c.75-.75.75-3.66.75-3.66-.11-1.4-3.12-11.62-5.59-18.4s-6.46-7.32-6.46-7.32c0,0-63.47-.65-66.16-.54-2.69.11-5.38,3.76-5.38,3.76,0,0-6.78,14.63-7.64,17.97-.86,3.34-.32,6.78-.32,6.78,0,0-13.66,10.76-13.66,11.08s-.54,2.04-.32,5.06c-1.18.11-1.18,0-1.18,0v8.93h108.77v-8.28h-1.18l.54-14.42s0-.97-1.08-.97h-1.08Z"/>
</svg>