<?xml version="1.0" encoding="UTF-8"?>
<svg id="Layer_1" xmlns="http://www.w3.org/2000/svg" version="1.1" viewBox="0 0 300 250">
  <!-- Generator: Adobe Illustrator 29.8.2, SVG Export Plug-In . SVG Version: 2.1.1 Build 3)  -->
  <defs>
    <style>
      .st0 {
        fill: #639;
      }
    </style>
  </defs>
  <g id="Layer_2">
    <g>
      <g>
        <path class="st0" d="M150,26.3c-54.43,0-98.71,44.28-98.71,98.7s44.28,98.7,98.71,98.7,98.7-44.28,98.7-98.7S204.42,26.3,150,26.3M150,225.2c-55.25,0-100.21-44.95-100.21-100.21S94.75,24.8,150,24.8s100.21,44.95,100.21,100.2-44.95,100.21-100.21,100.21"/>
        <path class="st0" d="M148.88,33.67c-49.94,0-90.56,40.63-90.56,90.56s40.62,90.56,90.56,90.56,90.56-40.63,90.56-90.56-40.63-90.56-90.56-90.56M148.88,216.3c-50.76,0-92.07-41.3-92.07-92.06s41.3-92.06,92.07-92.06,92.06,41.3,92.06,92.06-41.3,92.06-92.06,92.06"/>
        <path class="st0" d="M148.88,70.2c-29.8,0-54.04,24.24-54.04,54.04s24.24,54.04,54.04,54.04,54.04-24.24,54.04-54.04-24.24-54.04-54.04-54.04M148.88,179.77c-30.62,0-55.54-24.91-55.54-55.54s24.91-55.53,55.54-55.53,55.53,24.91,55.53,55.53-24.91,55.54-55.53,55.54"/>
      </g>
      <polygon class="st0" points="132.13 111.73 132.13 115.99 142.13 115.99 132.13 136.75 138.13 136.75 148.88 116.74 148.88 111.73 132.13 111.73"/>
      <g>
        <path class="st0" d="M152.39,119.24h4.75s-.49-3.57,3-3.75c4.5-.25,1.94,5.38,1.94,5.38l-9.7,12.13v3.75h15.76v-3.75h-9.25l8.25-11.26s2.75-10.26-6.88-10.01-7.88,7.51-7.88,7.51"/>
        <path class="st0" d="M120.12,166.03c-.15,0-.31-.05-.44-.15-.34-.25-.41-.72-.16-1.05l5.5-7.5c.25-.33.72-.41,1.05-.16.33.24.41.71.16,1.05l-5.5,7.51c-.15.2-.37.31-.6.31"/>
        <path class="st0" d="M118.7,165c-.16,0-.33-.05-.46-.16-.33-.26-.38-.73-.12-1.06l5.76-7.31c.26-.32.73-.38,1.06-.12.32.26.38.73.12,1.06l-5.76,7.31c-.15.19-.37.28-.59.28"/>
        <path class="st0" d="M117.32,163.92c-.17,0-.34-.06-.48-.17-.32-.27-.36-.74-.09-1.06l6.01-7.11c.27-.31.74-.36,1.06-.09s.36.74.09,1.06l-6.02,7.11c-.15.17-.36.26-.57.26"/>
        <path class="st0" d="M115.99,162.8c-.18,0-.36-.06-.51-.2-.31-.28-.33-.75-.05-1.06l6.26-6.89c.28-.31.75-.33,1.06-.05s.33.75.05,1.06l-6.26,6.89c-.15.16-.35.25-.55.25"/>
        <path class="st0" d="M114.69,161.63c-.19,0-.38-.07-.52-.21-.3-.29-.3-.76-.01-1.06l6.5-6.67c.29-.3.76-.3,1.06,0,.3.29.31.76.01,1.06l-6.5,6.67c-.15.15-.34.23-.54.23"/>
        <path class="st0" d="M113.43,160.41c-.2,0-.4-.07-.54-.23-.29-.3-.28-.77.02-1.06l6.72-6.44c.3-.28.77-.28,1.06.02s.28.77-.02,1.06l-6.72,6.44c-.15.14-.33.21-.52.21"/>
        <path class="st0" d="M112.22,159.15c-.21,0-.41-.09-.56-.25-.27-.31-.25-.79.06-1.06l6.94-6.2c.31-.27.78-.25,1.06.06.27.31.25.78-.06,1.06l-6.95,6.2c-.14.12-.32.19-.5.19"/>
        <path class="st0" d="M111.05,157.85c-.22,0-.43-.09-.58-.27-.27-.32-.22-.79.1-1.06l7.15-5.95c.32-.27.8-.22,1.06.1.26.32.22.79-.1,1.06l-7.16,5.95c-.14.12-.31.17-.48.17"/>
        <path class="st0" d="M109.92,156.51c-.22,0-.44-.1-.59-.29-.25-.33-.19-.8.14-1.05l7.36-5.7c.33-.25.8-.2,1.05.14.25.33.19.8-.14,1.05l-7.36,5.7c-.14.11-.3.16-.46.16"/>
        <path class="st0" d="M108.85,155.13c-.23,0-.46-.11-.61-.31-.24-.33-.16-.81.17-1.05l7.55-5.44c.33-.24.8-.16,1.05.17.24.33.16.8-.17,1.05l-7.55,5.44c-.13.09-.28.14-.44.14"/>
        <path class="st0" d="M107.82,153.72c-.25,0-.48-.11-.62-.33-.23-.35-.14-.81.21-1.04l7.74-5.17c.35-.23.81-.14,1.04.21s.14.81-.21,1.04l-7.74,5.17c-.13.09-.27.12-.42.12"/>
        <path class="st0" d="M106.84,152.27c-.25,0-.49-.13-.64-.36-.21-.35-.11-.81.25-1.03l7.91-4.9c.35-.22.81-.11,1.03.25.22.35.11.81-.24,1.03l-7.91,4.9c-.12.08-.26.11-.39.11"/>
        <path class="st0" d="M105.92,150.78c-.26,0-.51-.14-.65-.38-.21-.36-.08-.82.28-1.02l8.08-4.62c.36-.21.82-.08,1.02.28.21.36.08.82-.28,1.02l-8.08,4.61c-.11.07-.24.1-.37.1"/>
        <path class="st0" d="M105.04,149.27c-.27,0-.53-.15-.67-.4-.2-.37-.05-.82.32-1.01l8.23-4.33c.37-.2.82-.05,1.01.31.19.37.05.82-.31,1.01l-8.24,4.33c-.11.06-.23.09-.35.09"/>
        <path class="st0" d="M104.22,147.72c-.28,0-.55-.16-.68-.43-.18-.37-.02-.82.35-1l8.38-4.04c.37-.18.82-.02,1,.35.18.37.02.83-.35,1l-8.38,4.04c-.11.05-.22.07-.33.07"/>
        <path class="st0" d="M103.46,146.15c-.29,0-.57-.17-.69-.45-.17-.38,0-.82.38-.99l8.51-3.75c.38-.16.82,0,.99.39.17.38,0,.82-.38.99l-8.52,3.75c-.1.04-.2.06-.3.06"/>
        <path class="st0" d="M102.75,144.55c-.3,0-.58-.18-.7-.47-.15-.38.03-.82.42-.97l8.64-3.45c.39-.15.83.03.98.42s-.04.83-.42.98l-8.64,3.45c-.09.04-.19.05-.28.05"/>
        <path class="st0" d="M102.09,142.93c-.31,0-.6-.19-.71-.5-.14-.39.06-.82.46-.96l8.76-3.14c.39-.14.82.06.96.45s-.06.82-.45.96l-8.76,3.14c-.09.03-.17.05-.26.05"/>
        <path class="st0" d="M101.49,141.29c-.32,0-.61-.2-.72-.52-.13-.39.09-.81.49-.94l8.86-2.84c.4-.13.82.09.94.49.13.39-.09.81-.48.94l-8.86,2.84c-.07.02-.15.04-.23.04"/>
        <path class="st0" d="M100.95,139.62c-.33,0-.63-.22-.72-.55-.11-.4.12-.81.52-.93l8.96-2.53c.4-.11.81.12.93.52.11.4-.12.81-.52.93l-8.96,2.53c-.07.02-.14.03-.2.03"/>
        <path class="st0" d="M100.47,137.94c-.34,0-.64-.23-.73-.57-.1-.4.15-.81.55-.91l9.04-2.21c.4-.1.81.15.91.55.1.4-.15.81-.55.91l-9.04,2.21c-.06,0-.12.02-.18.02"/>
        <path class="st0" d="M100.05,136.25c-.35,0-.66-.24-.74-.6-.08-.41.18-.8.58-.89l9.11-1.89c.41-.09.8.17.89.58s-.18.8-.58.89l-9.11,1.9s-.1,0-.15,0"/>
        <path class="st0" d="M99.69,134.53c-.36,0-.68-.26-.74-.62-.07-.41.21-.8.61-.87l9.17-1.58c.41-.07.8.21.86.62.07.41-.2.79-.61.86l-9.17,1.58s-.09,0-.12,0"/>
        <path class="st0" d="M99.38,132.81c-.37,0-.69-.27-.74-.65-.05-.41.23-.79.64-.84l9.22-1.26c.41-.06.79.23.84.64.06.41-.23.79-.64.84l-9.22,1.25s-.07,0-.1,0"/>
        <path class="st0" d="M99.14,131.08c-.38,0-.71-.29-.74-.68-.04-.41.26-.78.67-.82l9.26-.93c.42-.04.78.26.83.67.04.41-.26.78-.67.83l-9.26.93h-.08"/>
        <path class="st0" d="M98.96,129.34c-.39,0-.72-.31-.75-.7-.02-.41.29-.77.7-.8l9.29-.6c.43-.03.77.28.8.7.02.41-.29.77-.7.8l-9.28.6h-.05"/>
        <path class="st0" d="M98.84,127.6c-.4,0-.74-.32-.75-.73s.31-.76.73-.77l9.3-.28h.02c.4,0,.74.32.75.73s-.32.76-.73.77l-9.3.28h-.02"/>
        <path class="st0" d="M108.08,125.89h0l-9.3-.04c-.41,0-.75-.34-.75-.75s.34-.75.75-.75h0l9.31.04c.41,0,.75.34.75.75s-.34.75-.75.75"/>
        <path class="st0" d="M108.08,124.46h-.03l-9.29-.37c-.42-.02-.74-.37-.72-.78.02-.42.4-.74.78-.72l9.3.37c.41.01.74.37.72.78-.01.41-.35.72-.75.72"/>
        <path class="st0" d="M108.12,123.04h-.06l-9.28-.69c-.41-.03-.72-.39-.69-.8.04-.41.38-.73.8-.69l9.28.69c.41.03.73.39.69.8-.03.39-.36.7-.75.7"/>
        <path class="st0" d="M108.21,121.62h-.09l-9.24-1.01c-.42-.05-.71-.42-.67-.83s.41-.71.83-.67l9.25,1.01c.41.05.71.42.66.83-.04.38-.37.67-.74.67"/>
        <path class="st0" d="M108.36,120.2s-.07,0-.11-.01l-9.2-1.33c-.41-.06-.7-.44-.64-.85.06-.41.44-.69.85-.63l9.2,1.33c.41.06.69.44.63.85-.05.37-.37.64-.74.64"/>
        <path class="st0" d="M108.55,118.79s-.09,0-.13-.01l-9.15-1.66c-.41-.07-.68-.46-.61-.87s.47-.68.88-.6l9.15,1.66c.41.07.68.46.6.87-.07.36-.38.62-.74.62"/>
        <path class="st0" d="M108.79,117.39c-.05,0-.11,0-.16-.01l-9.09-1.97c-.41-.09-.66-.49-.57-.9.09-.4.49-.66.89-.57l9.09,1.97c.41.09.66.49.58.89-.08.35-.39.59-.73.59"/>
        <path class="st0" d="M109.08,115.99c-.06,0-.12,0-.19-.02l-9.02-2.29c-.4-.1-.65-.51-.54-.91.1-.4.51-.64.91-.54l9.02,2.29c.4.1.64.51.54.91-.09.34-.39.57-.73.57"/>
        <path class="st0" d="M109.42,114.61c-.07,0-.14-.01-.21-.03l-8.93-2.6c-.4-.12-.63-.53-.51-.93.11-.4.53-.63.93-.51l8.93,2.6c.4.12.63.53.51.93-.09.33-.39.54-.72.54"/>
        <path class="st0" d="M109.8,113.24c-.08,0-.16-.01-.23-.04l-8.83-2.92c-.39-.13-.61-.55-.48-.95.13-.39.55-.6.95-.48l8.83,2.91c.39.13.61.56.48.95-.11.32-.4.52-.72.52"/>
        <path class="st0" d="M110.24,111.88c-.09,0-.17-.01-.26-.05l-8.73-3.22c-.39-.15-.59-.58-.44-.96.14-.39.57-.59.96-.44l8.73,3.22c.39.14.59.57.44.96-.11.31-.4.49-.7.49"/>
        <path class="st0" d="M110.72,110.54c-.1,0-.19-.02-.28-.06l-8.61-3.52c-.38-.16-.57-.6-.41-.98.16-.39.6-.57.98-.41l8.61,3.53c.38.16.57.59.41.98-.12.29-.4.47-.7.47"/>
        <path class="st0" d="M111.25,109.22c-.1,0-.21-.02-.31-.06l-8.48-3.82c-.38-.17-.55-.61-.38-.99.17-.38.61-.54.99-.38l8.48,3.82c.38.17.54.62.38.99-.13.28-.4.44-.69.44"/>
        <path class="st0" d="M111.82,107.92c-.11,0-.22-.02-.33-.07l-8.34-4.12c-.37-.18-.53-.63-.34-1,.18-.37.63-.52,1-.34l8.34,4.12c.37.18.52.63.34,1.01-.13.27-.4.42-.67.42"/>
        <path class="st0" d="M112.44,106.63c-.12,0-.24-.03-.36-.09l-8.19-4.4c-.37-.2-.51-.65-.31-1.02.2-.37.65-.5,1.02-.31l8.19,4.4c.36.2.5.65.31,1.02-.14.25-.39.39-.66.39"/>
        <path class="st0" d="M113.1,105.37c-.13,0-.26-.03-.38-.1l-8.03-4.69c-.36-.21-.48-.67-.27-1.03.21-.36.67-.48,1.02-.27l8.04,4.69c.36.21.48.67.27,1.02-.14.24-.39.37-.65.37"/>
        <path class="st0" d="M113.81,104.13c-.14,0-.28-.04-.4-.11l-7.86-4.97c-.35-.22-.46-.68-.23-1.04.22-.35.69-.45,1.04-.23l7.87,4.96c.35.22.46.68.23,1.04-.14.22-.38.35-.63.35"/>
        <path class="st0" d="M114.56,102.92c-.15,0-.3-.04-.42-.13l-7.69-5.24c-.35-.23-.43-.7-.2-1.04.23-.35.7-.43,1.04-.2l7.69,5.24c.34.23.43.7.2,1.04-.14.21-.38.33-.62.33"/>
        <path class="st0" d="M115.35,101.74c-.15,0-.31-.05-.44-.15l-7.5-5.5c-.33-.25-.41-.72-.16-1.05.25-.34.72-.41,1.05-.16l7.5,5.5c.33.25.41.72.16,1.05-.15.2-.37.31-.6.31"/>
        <path class="st0" d="M116.18,100.58c-.16,0-.32-.05-.46-.16l-7.3-5.76c-.32-.26-.38-.73-.12-1.05s.73-.38,1.05-.12l7.3,5.76c.32.26.38.73.12,1.05-.15.19-.37.28-.59.28"/>
        <path class="st0" d="M117.05,99.46c-.17,0-.34-.06-.48-.18l-7.1-6.01c-.32-.27-.36-.74-.09-1.06.27-.32.74-.36,1.06-.09l7.09,6.01c.32.27.36.74.09,1.06-.15.18-.36.27-.57.27"/>
        <path class="st0" d="M117.96,98.36c-.18,0-.36-.06-.51-.2l-6.88-6.26c-.31-.28-.33-.75-.05-1.06s.75-.33,1.06-.05l6.88,6.26c.31.28.33.75.05,1.06-.15.16-.35.25-.55.25"/>
        <path class="st0" d="M118.91,97.3c-.19,0-.38-.07-.52-.21l-6.66-6.49c-.3-.29-.3-.77-.01-1.06.29-.3.76-.3,1.06-.01l6.66,6.49c.3.29.3.77.01,1.06-.15.15-.34.23-.54.23"/>
        <path class="st0" d="M119.9,96.27c-.2,0-.4-.08-.54-.23l-6.43-6.72c-.29-.3-.28-.78.02-1.06.3-.28.77-.28,1.06.02l6.43,6.72c.29.3.28.78-.02,1.06-.15.14-.33.21-.52.21"/>
        <path class="st0" d="M120.92,95.28c-.21,0-.41-.09-.56-.25l-6.19-6.94c-.28-.31-.25-.79.06-1.06.31-.28.79-.25,1.06.06l6.19,6.94c.28.31.25.79-.06,1.06-.14.13-.32.19-.5.19"/>
        <path class="st0" d="M121.97,94.32c-.21,0-.43-.09-.58-.27l-5.95-7.16c-.27-.32-.22-.79.1-1.06.32-.26.79-.22,1.06.1l5.95,7.15c.27.32.22.79-.1,1.06-.14.12-.31.17-.48.17"/>
        <path class="st0" d="M123.06,93.4c-.22,0-.45-.1-.59-.29l-5.7-7.35c-.25-.33-.19-.8.14-1.05.33-.26.8-.19,1.05.14l5.69,7.35c.26.33.2.8-.13,1.05-.14.1-.3.16-.46.16"/>
        <path class="st0" d="M124.18,92.52c-.23,0-.46-.11-.61-.31l-5.43-7.55c-.24-.34-.16-.8.17-1.05.34-.24.8-.17,1.05.17l5.44,7.55c.24.33.16.8-.17,1.05-.13.1-.28.14-.44.14"/>
        <path class="st0" d="M125.33,91.67c-.24,0-.48-.12-.62-.33l-5.17-7.74c-.23-.35-.14-.81.21-1.04s.81-.14,1.04.2l5.17,7.74c.23.35.14.81-.21,1.04-.13.08-.27.12-.42.12"/>
        <path class="st0" d="M126.5,90.87c-.25,0-.49-.13-.64-.36l-4.89-7.91c-.22-.35-.11-.81.25-1.04.35-.22.81-.11,1.03.25l4.9,7.91c.22.35.11.81-.25,1.04-.12.07-.26.11-.39.11"/>
        <path class="st0" d="M127.71,90.11c-.26,0-.51-.14-.65-.38l-4.61-8.08c-.21-.36-.08-.82.28-1.02.36-.21.82-.09,1.02.28l4.61,8.08c.21.36.08.82-.28,1.02-.12.07-.25.1-.37.1"/>
        <path class="st0" d="M128.94,89.4c-.27,0-.53-.15-.67-.4l-4.33-8.23c-.19-.37-.05-.82.32-1.01s.82-.05,1.01.32l4.33,8.23c.2.37.05.82-.31,1.01-.11.06-.23.09-.35.09"/>
        <path class="st0" d="M130.2,88.72c-.28,0-.55-.16-.68-.43l-4.04-8.38c-.18-.37-.02-.83.35-1,.38-.18.83-.02,1,.35l4.04,8.38c.18.37.02.82-.35,1-.11.05-.22.07-.33.07"/>
        <path class="st0" d="M131.47,88.09c-.29,0-.57-.17-.69-.45l-3.75-8.51c-.17-.38,0-.83.38-.99.38-.16.82.01.99.39l3.75,8.51c.17.38,0,.82-.38.99-.1.04-.2.06-.3.06"/>
        <path class="st0" d="M136.78,86.03c-.33,0-.63-.22-.72-.55l-2.53-8.95c-.11-.4.12-.82.52-.93.4-.11.81.12.93.52l2.53,8.96c.11.4-.12.81-.52.93-.07.02-.14.03-.2.03"/>
        <path class="st0" d="M138.14,85.63c-.34,0-.64-.23-.73-.57l-2.22-9.04c-.1-.4.15-.81.56-.9.39-.1.81.15.91.55l2.21,9.04c.1.4-.15.81-.55.91-.06.01-.12.02-.18.02"/>
        <path class="st0" d="M139.53,85.28c-.35,0-.66-.25-.74-.6l-1.9-9.11c-.09-.41.18-.8.58-.89.41-.09.8.18.89.58l1.9,9.11c.08.41-.18.8-.58.89-.05,0-.1.01-.15.01"/>
        <path class="st0" d="M140.92,84.98c-.36,0-.67-.26-.74-.62l-1.58-9.17c-.07-.41.21-.8.62-.87.42-.07.79.2.87.62l1.57,9.17c.07.41-.2.8-.61.87-.05,0-.09.01-.13.01"/>
        <path class="st0" d="M142.32,84.72c-.37,0-.69-.27-.74-.65l-1.26-9.22c-.06-.41.23-.79.64-.85s.79.23.85.64l1.26,9.22c.06.41-.23.79-.64.84h-.1"/>
        <path class="st0" d="M143.73,84.52c-.38,0-.71-.29-.75-.68l-.93-9.26c-.04-.41.26-.78.67-.82.42-.04.78.26.83.67l.93,9.26c.04.41-.26.78-.67.82h-.07"/>
        <path class="st0" d="M145.14,84.37c-.39,0-.72-.31-.75-.7l-.61-9.29c-.02-.41.29-.77.7-.8.41-.03.77.28.8.7l.61,9.28c.03.41-.28.77-.7.8h-.05"/>
        <path class="st0" d="M146.56,84.26c-.41,0-.74-.32-.75-.73l-.29-9.3c0-.42.31-.76.73-.77.38-.02.76.31.77.73l.29,9.3c0,.42-.31.76-.73.78h-.02"/>
        <path class="st0" d="M147.99,84.2h0c-.41,0-.75-.34-.75-.75l.04-9.3c0-.41.37-.74.75-.75.42,0,.75.34.75.75l-.04,9.3c0,.41-.34.75-.75.75"/>
        <path class="st0" d="M149.41,84.2h-.03c-.42-.02-.74-.37-.72-.78l.36-9.3c.02-.41.38-.74.78-.72.42.02.74.36.72.78l-.37,9.3c0,.41-.35.72-.75.72"/>
        <path class="st0" d="M150.84,84.24h-.06c-.41-.03-.72-.39-.69-.8l.69-9.28c.03-.41.38-.73.8-.69.41.03.72.39.69.8l-.69,9.28c-.03.4-.36.7-.75.7"/>
        <path class="st0" d="M152.26,84.33h-.08c-.41-.05-.71-.42-.67-.83l1.01-9.25c.05-.41.41-.71.83-.67.41.05.71.42.67.83l-1.01,9.25c-.04.38-.37.67-.75.67"/>
        <path class="st0" d="M153.67,84.48h-.11c-.41-.06-.69-.44-.63-.85l1.33-9.21c.06-.41.43-.7.85-.63.41.06.69.44.64.85l-1.33,9.21c-.05.37-.38.64-.74.64"/>
        <path class="st0" d="M155.09,84.67s-.09,0-.14-.01c-.41-.07-.68-.46-.6-.87l1.65-9.16c.07-.41.46-.68.87-.6.41.07.68.46.6.87l-1.65,9.15c-.06.36-.38.62-.74.62"/>
        <path class="st0" d="M156.49,84.91c-.05,0-.11,0-.16-.02-.41-.09-.66-.49-.58-.89l1.97-9.09c.09-.41.49-.66.9-.58.4.09.66.49.57.9l-1.97,9.09c-.08.35-.39.59-.73.59"/>
        <path class="st0" d="M157.88,85.2c-.06,0-.12,0-.19-.02-.4-.1-.65-.51-.54-.91l2.29-9.02c.1-.4.51-.64.91-.54.4.1.64.51.54.91l-2.29,9.02c-.09.34-.39.57-.73.57"/>
        <path class="st0" d="M160.64,85.92c-.08,0-.16-.01-.23-.04-.39-.13-.61-.55-.48-.95l2.91-8.84c.13-.39.56-.61.95-.48.4.13.61.56.48.95l-2.91,8.84c-.11.32-.4.52-.72.52"/>
        <path class="st0" d="M163.34,86.84c-.1,0-.19-.02-.28-.06-.38-.16-.57-.59-.41-.98l3.52-8.61c.16-.38.6-.57.98-.41.39.16.57.59.41.98l-3.52,8.61c-.12.29-.4.47-.69.47"/>
        <path class="st0" d="M164.65,87.37c-.1,0-.21-.02-.31-.07-.38-.17-.55-.61-.38-.99l3.82-8.48c.17-.38.62-.55.99-.38.38.17.55.62.38.99l-3.82,8.49c-.12.28-.4.44-.69.44"/>
        <path class="st0" d="M165.96,87.94c-.11,0-.22-.02-.33-.08-.37-.18-.53-.63-.34-1l4.11-8.35c.19-.37.63-.53,1-.34s.53.63.34,1l-4.11,8.35c-.13.26-.4.42-.67.42"/>
        <path class="st0" d="M167.24,88.56c-.12,0-.24-.03-.35-.09-.37-.2-.51-.65-.31-1.02l4.4-8.2c.2-.36.65-.5,1.01-.31.37.2.51.65.31,1.02l-4.4,8.2c-.14.25-.39.39-.66.39"/>
        <path class="st0" d="M168.5,89.22c-.13,0-.26-.04-.38-.1-.36-.21-.48-.67-.27-1.03l4.69-8.04c.21-.36.67-.48,1.02-.27.36.21.48.67.27,1.03l-4.69,8.04c-.14.24-.39.37-.65.37"/>
        <path class="st0" d="M169.74,89.93c-.14,0-.28-.04-.4-.12-.35-.22-.46-.68-.23-1.04l4.96-7.87c.22-.35.68-.46,1.03-.23.35.22.46.68.24,1.04l-4.97,7.87c-.14.23-.38.35-.63.35"/>
        <path class="st0" d="M170.95,90.68c-.15,0-.29-.04-.42-.13-.35-.23-.43-.7-.2-1.04l5.24-7.7c.23-.34.7-.43,1.04-.2.35.23.43.7.2,1.04l-5.23,7.69c-.15.21-.38.33-.62.33"/>
        <path class="st0" d="M172.13,91.47c-.15,0-.31-.05-.44-.15-.33-.25-.41-.71-.16-1.05l5.5-7.5c.25-.33.72-.41,1.05-.16s.41.72.16,1.05l-5.5,7.5c-.15.2-.37.31-.6.31"/>
        <path class="st0" d="M173.29,92.3c-.16,0-.33-.05-.46-.16-.33-.26-.38-.73-.13-1.05l5.76-7.31c.26-.32.73-.38,1.05-.12.33.26.38.73.12,1.05l-5.76,7.31c-.15.19-.37.28-.59.28"/>
        <path class="st0" d="M174.42,93.17c-.17,0-.35-.06-.48-.18-.32-.27-.36-.74-.09-1.06l6.01-7.11c.27-.31.74-.36,1.06-.09.32.27.36.74.09,1.06l-6.01,7.1c-.15.18-.36.27-.57.27"/>
        <path class="st0" d="M175.51,94.08c-.18,0-.36-.06-.51-.2-.31-.28-.33-.75-.05-1.06l6.26-6.89c.28-.31.75-.33,1.06-.05s.33.75.05,1.06l-6.26,6.89c-.14.16-.35.25-.55.25"/>
        <path class="st0" d="M176.57,95.03c-.19,0-.38-.07-.52-.21-.3-.29-.3-.76,0-1.06l6.49-6.67c.29-.3.76-.3,1.06-.01s.3.76,0,1.06l-6.49,6.67c-.15.15-.34.23-.54.23"/>
        <path class="st0" d="M177.6,96.02c-.2,0-.4-.08-.54-.23-.28-.3-.27-.78.02-1.06l6.72-6.44c.3-.28.77-.28,1.06.02.29.3.28.78-.02,1.06l-6.72,6.44c-.15.14-.33.21-.52.21"/>
        <path class="st0" d="M178.6,97.04c-.21,0-.41-.09-.56-.25-.27-.31-.25-.78.06-1.06l6.94-6.19c.31-.28.78-.25,1.06.06.27.31.25.79-.06,1.06l-6.94,6.2c-.14.13-.32.19-.5.19"/>
        <path class="st0" d="M179.55,98.09c-.22,0-.43-.09-.58-.27-.27-.32-.22-.79.1-1.06l7.15-5.95c.32-.27.79-.22,1.06.1s.22.79-.1,1.06l-7.15,5.95c-.14.12-.31.17-.48.17"/>
        <path class="st0" d="M180.48,99.18c-.22,0-.44-.1-.6-.29-.25-.33-.19-.8.14-1.05l7.35-5.7c.33-.26.8-.2,1.05.13.25.33.19.8-.14,1.05l-7.35,5.7c-.14.11-.3.16-.46.16"/>
        <path class="st0" d="M181.36,100.3c-.23,0-.46-.11-.61-.31-.24-.34-.17-.81.17-1.05l7.55-5.44c.34-.25.81-.17,1.05.17.24.33.16.8-.17,1.05l-7.55,5.44c-.13.09-.28.14-.44.14"/>
        <path class="st0" d="M182.2,101.45c-.24,0-.48-.11-.63-.33-.23-.34-.14-.81.21-1.04l7.73-5.17c.35-.23.81-.14,1.04.21s.14.81-.21,1.04l-7.74,5.17c-.13.09-.27.12-.42.12"/>
        <path class="st0" d="M183,102.62c-.25,0-.49-.12-.64-.35-.22-.36-.11-.82.24-1.04l7.91-4.9c.35-.22.81-.11,1.03.24.22.36.11.81-.25,1.04l-7.91,4.9c-.12.07-.26.11-.39.11"/>
        <path class="st0" d="M183.76,103.83c-.26,0-.51-.14-.65-.38-.21-.36-.08-.82.28-1.02l8.08-4.62c.36-.21.82-.08,1.02.28.21.36.08.82-.28,1.02l-8.07,4.62c-.12.07-.25.1-.37.1"/>
        <path class="st0" d="M184.48,105.06c-.27,0-.53-.15-.66-.4-.2-.37-.05-.82.31-1.01l8.23-4.33c.37-.19.82-.05,1.01.31.19.37.05.82-.32,1.02l-8.23,4.33c-.11.06-.23.09-.35.09"/>
        <path class="st0" d="M185.15,106.31c-.28,0-.55-.15-.68-.42-.18-.37-.02-.82.35-1l8.38-4.05c.37-.18.83-.02,1,.35.18.38.02.83-.35,1.01l-8.38,4.04c-.11.05-.22.07-.33.07"/>
        <path class="st0" d="M185.78,107.59c-.29,0-.56-.17-.69-.45-.17-.38,0-.82.38-.99l8.51-3.75c.38-.17.83,0,.99.38s0,.82-.39.99l-8.51,3.75c-.1.04-.2.06-.3.06"/>
        <path class="st0" d="M186.37,108.89c-.3,0-.58-.18-.7-.47-.15-.38.04-.82.42-.97l8.64-3.45c.38-.15.82.04.97.42s-.04.82-.42.97l-8.64,3.45c-.09.04-.18.05-.28.05"/>
        <path class="st0" d="M186.91,110.21c-.31,0-.59-.19-.7-.5-.14-.39.06-.82.45-.96l8.76-3.15c.39-.14.82.06.96.45s-.06.82-.46.96l-8.75,3.15c-.09.03-.17.04-.26.04"/>
        <path class="st0" d="M187.4,111.54c-.32,0-.61-.2-.72-.52-.12-.39.09-.81.49-.94l8.86-2.84c.39-.13.82.09.95.48.12.39-.09.82-.49.94l-8.86,2.84c-.07.02-.15.04-.23.04"/>
        <path class="st0" d="M187.84,112.89c-.33,0-.63-.22-.72-.55-.11-.4.12-.81.52-.93l8.96-2.53c.39-.11.81.12.93.52.11.4-.12.81-.52.93l-8.96,2.53c-.07.02-.14.03-.21.03"/>
        <path class="st0" d="M188.24,114.26c-.34,0-.64-.23-.73-.57-.1-.4.15-.81.55-.91l9.04-2.21c.4-.1.8.15.91.55.1.4-.15.81-.55.91l-9.04,2.21c-.06.01-.12.02-.18.02"/>
        <path class="st0" d="M188.59,115.64c-.35,0-.66-.24-.74-.6-.08-.41.18-.8.58-.89l9.11-1.9c.41-.09.8.17.89.58.08.41-.18.8-.58.89l-9.11,1.9s-.1.01-.15.01"/>
        <path class="st0" d="M188.9,117.03c-.36,0-.68-.26-.74-.62-.07-.41.21-.8.62-.87l9.17-1.58c.41-.07.8.21.87.62.07.41-.21.79-.62.86l-9.17,1.58s-.09.01-.13.01"/>
        <path class="st0" d="M189.15,118.44c-.37,0-.69-.27-.74-.65-.06-.41.23-.79.64-.85l9.22-1.26c.41-.06.79.23.85.64.05.41-.23.79-.64.85l-9.22,1.26h-.1"/>
        <path class="st0" d="M189.36,119.84c-.38,0-.71-.29-.75-.67-.04-.42.26-.78.67-.82l9.26-.94c.42-.04.78.26.82.67.04.41-.26.78-.67.82l-9.26.94h-.07"/>
        <path class="st0" d="M189.51,121.26c-.39,0-.72-.31-.75-.7-.03-.42.28-.77.7-.8l9.28-.61c.41-.03.77.28.8.7.03.41-.28.77-.7.8l-9.29.61h-.05"/>
        <path class="st0" d="M189.62,122.68c-.4,0-.74-.32-.75-.73s.31-.76.73-.77l9.3-.29c.43,0,.76.31.78.73s-.31.76-.73.77l-9.3.29h-.03Z"/>
        <path class="st0" d="M198.98,124.14h0l-9.31-.04c-.42,0-.75-.34-.75-.75s.34-.75.75-.75h0l9.3.04c.42,0,.75.34.75.75s-.34.75-.75.75"/>
        <path class="st0" d="M198.98,125.89h-.03l-9.29-.36c-.41-.02-.74-.36-.72-.78.02-.41.38-.75.78-.72l9.3.36c.42.01.74.36.72.78,0,.41-.35.72-.75.72"/>
        <path class="st0" d="M198.92,127.64h-.06l-9.28-.69c-.41-.03-.72-.39-.69-.8.04-.41.38-.73.81-.69l9.28.69c.41.03.72.39.69.8-.03.39-.36.69-.75.69"/>
        <path class="st0" d="M198.79,129.38h-.08l-9.25-1.01c-.41-.05-.71-.42-.67-.83.04-.41.41-.71.83-.66l9.25,1.01c.41.04.71.42.66.83-.04.38-.36.67-.74.67"/>
        <path class="st0" d="M198.61,131.12h-.11l-9.21-1.33c-.41-.06-.69-.44-.64-.85.06-.41.44-.7.85-.64l9.2,1.33c.41.06.7.44.64.85-.05.37-.38.64-.74.64"/>
        <path class="st0" d="M198.37,132.86s-.09,0-.14,0l-9.15-1.65c-.41-.07-.68-.46-.61-.87.07-.41.46-.68.88-.6l9.15,1.65c.41.07.68.46.6.87-.07.36-.38.62-.74.62"/>
        <path class="st0" d="M198.06,134.58c-.05,0-.11,0-.16-.02l-9.09-1.97c-.41-.09-.66-.49-.57-.89s.49-.66.89-.57l9.09,1.97c.41.09.67.49.58.89-.08.35-.39.59-.73.59"/>
        <path class="st0" d="M197.7,136.29c-.06,0-.12,0-.19-.02l-9.02-2.29c-.4-.1-.64-.51-.54-.91.1-.4.51-.65.91-.54l9.02,2.29c.4.1.65.51.54.91-.09.34-.39.57-.73.57"/>
        <path class="st0" d="M197.27,137.98c-.07,0-.14,0-.21-.03l-8.93-2.6c-.4-.12-.63-.53-.51-.93s.53-.63.93-.51l8.93,2.6c.39.12.63.53.51.93-.09.33-.4.54-.72.54"/>
        <path class="st0" d="M196.79,139.67c-.08,0-.16,0-.23-.04l-8.84-2.91c-.39-.13-.61-.55-.48-.95.13-.39.55-.61.95-.48l8.84,2.91c.39.13.61.56.48.95-.1.32-.4.52-.71.52"/>
        <path class="st0" d="M196.25,141.33c-.09,0-.17,0-.26-.05l-8.73-3.22c-.39-.14-.58-.57-.44-.96.15-.39.58-.59.96-.44l8.73,3.22c.39.14.59.57.44.96-.11.3-.4.49-.7.49"/>
        <path class="st0" d="M195.65,142.97c-.1,0-.19-.02-.28-.06l-8.61-3.52c-.38-.16-.57-.6-.41-.98.16-.38.6-.57.97-.41l8.62,3.52c.38.16.57.59.41.98-.12.29-.4.47-.69.47"/>
        <path class="st0" d="M195,144.59c-.1,0-.21-.02-.31-.07l-8.49-3.82c-.38-.17-.55-.62-.38-.99.17-.38.61-.55.99-.38l8.49,3.82c.38.17.54.61.38.99-.13.28-.4.44-.69.44"/>
        <path class="st0" d="M194.28,146.19c-.11,0-.22-.02-.33-.08l-8.34-4.11c-.37-.18-.52-.63-.34-1,.18-.37.63-.53,1.01-.34l8.34,4.11c.37.18.53.63.34,1-.13.27-.4.42-.67.42"/>
        <path class="st0" d="M193.52,147.76c-.12,0-.24-.03-.36-.09l-8.2-4.4c-.37-.2-.5-.65-.31-1.01.2-.37.65-.5,1.02-.31l8.2,4.4c.37.2.5.65.31,1.02-.14.25-.39.39-.66.39"/>
        <path class="st0" d="M192.69,149.31c-.13,0-.26-.04-.38-.1l-8.04-4.69c-.36-.21-.48-.67-.27-1.02s.67-.48,1.02-.27l8.04,4.69c.36.21.48.67.27,1.02-.14.24-.39.37-.65.37"/>
        <path class="st0" d="M191.82,150.82c-.14,0-.27-.04-.4-.12l-7.87-4.96c-.35-.22-.46-.68-.23-1.03.22-.35.69-.46,1.04-.23l7.87,4.96c.35.22.46.68.23,1.04-.15.23-.39.35-.64.35"/>
        <path class="st0" d="M190.89,152.31c-.15,0-.29-.04-.42-.13l-7.69-5.23c-.35-.23-.43-.7-.2-1.04.23-.35.7-.43,1.04-.2l7.69,5.24c.34.23.43.7.2,1.04-.15.21-.38.33-.62.33"/>
        <path class="st0" d="M189.91,153.76c-.15,0-.31-.05-.44-.15l-7.51-5.5c-.33-.25-.41-.72-.16-1.05.24-.33.72-.41,1.05-.16l7.51,5.5c.33.25.41.71.16,1.05-.15.2-.37.31-.6.31"/>
        <path class="st0" d="M188.88,155.17c-.16,0-.32-.05-.46-.16l-7.31-5.76c-.32-.26-.38-.73-.12-1.05.26-.33.73-.38,1.05-.12l7.31,5.76c.32.26.38.73.12,1.05-.15.19-.37.29-.59.29"/>
        <path class="st0" d="M187.81,156.55c-.17,0-.34-.06-.48-.18l-7.11-6.01c-.31-.27-.35-.74-.09-1.06.27-.32.74-.36,1.06-.09l7.1,6.01c.32.27.36.74.09,1.06-.15.17-.36.27-.57.27"/>
        <path class="st0" d="M186.68,157.89c-.18,0-.36-.06-.51-.2l-6.89-6.26c-.31-.28-.33-.75-.05-1.06s.76-.33,1.06-.05l6.89,6.26c.31.28.33.75.05,1.06-.15.16-.35.25-.55.25"/>
        <path class="st0" d="M185.51,159.19c-.19,0-.38-.07-.52-.21l-6.67-6.49c-.3-.29-.3-.77,0-1.06.29-.3.76-.3,1.06,0l6.67,6.49c.3.29.3.77,0,1.06-.15.15-.34.23-.54.23"/>
        <path class="st0" d="M184.3,160.44c-.2,0-.4-.08-.54-.23l-6.44-6.72c-.28-.3-.27-.78.02-1.06.3-.28.77-.28,1.06.02l6.44,6.72c.29.3.28.78-.02,1.06-.15.14-.33.21-.52.21"/>
        <path class="st0" d="M183.04,161.66c-.21,0-.41-.09-.56-.25l-6.2-6.94c-.28-.31-.25-.78.06-1.06.31-.27.78-.25,1.06.06l6.2,6.94c.27.31.25.78-.06,1.06-.15.12-.32.19-.5.19"/>
        <path class="st0" d="M181.74,162.83c-.22,0-.43-.09-.58-.27l-5.95-7.15c-.27-.32-.22-.79.1-1.06s.79-.22,1.06.1l5.95,7.15c.27.32.22.79-.1,1.06-.14.12-.31.17-.48.17"/>
        <path class="st0" d="M180.39,163.95c-.22,0-.44-.1-.59-.29l-5.7-7.35c-.26-.33-.2-.8.14-1.05.32-.26.8-.2,1.05.13l5.7,7.36c.25.33.19.8-.14,1.05-.14.11-.3.16-.46.16"/>
        <path class="st0" d="M179.02,165.03c-.23,0-.47-.11-.61-.31l-5.44-7.55c-.24-.34-.16-.8.17-1.05.34-.24.81-.17,1.05.17l5.44,7.55c.25.33.17.8-.17,1.05-.14.1-.29.14-.44.14"/>
        <path class="st0" d="M177.6,166.05c-.24,0-.48-.12-.63-.33l-5.17-7.74c-.23-.35-.14-.81.21-1.04s.81-.14,1.04.21l5.17,7.74c.23.35.14.81-.21,1.04-.13.09-.27.12-.42.12"/>
        <path class="st0" d="M134.09,86.97c-.31,0-.6-.19-.71-.5l-3.15-8.76c-.14-.39.06-.82.46-.96.39-.14.82.06.96.46l3.14,8.76c.14.39-.06.82-.45.96-.08.03-.17.04-.25.04"/>
      </g>
      <rect class="st0" x="134.23" y="103.07" width=".94" height="4.81"/>
      <polygon class="st0" points="136.38 103.07 137.37 103.07 139.35 106.3 139.35 103.07 140.29 103.07 140.29 107.88 139.35 107.88 137.32 104.53 137.32 107.88 136.38 107.88 136.38 103.07"/>
      <g>
        <path class="st0" d="M143.24,104.35c.05-.25.14-.46.25-.63.16-.25.37-.43.62-.56s.52-.19.8-.19c.47,0,.84.13,1.14.39.29.26.44.57.44.92,0,.19-.04.38-.13.57-.09.19-.21.37-.36.54-.12.12-.35.33-.68.61-.33.28-.57.5-.71.64s-.27.29-.39.45h2.26v.78h-3.34v-.15c0-.23.05-.45.14-.66.1-.21.26-.44.48-.69.12-.14.41-.4.86-.8.34-.3.55-.49.63-.58.11-.12.2-.24.25-.35s.07-.22.07-.31c0-.17-.07-.32-.2-.45-.13-.12-.3-.19-.51-.19s-.38.07-.54.2c-.16.14-.28.35-.37.64l-.72-.19h0Z"/>
        <path class="st0" d="M147.58,103.07h2.63v.77h-1.91l-.11,1.16c.16-.1.33-.18.49-.23s.33-.08.49-.08c.43,0,.75.16.99.48.23.32.34.68.34,1.1,0,.51-.15.92-.47,1.24-.31.31-.72.47-1.22.47-.33,0-.63-.07-.88-.2-.26-.13-.5-.33-.73-.6l.81-.42c.21.31.47.47.75.47.23,0,.42-.09.58-.26.16-.17.24-.41.24-.69s-.07-.48-.21-.65c-.15-.16-.31-.23-.51-.23-.14,0-.27.03-.38.09-.12.06-.25.17-.38.32l-.77-.15.25-2.58h0Z"/>
      </g>
      <polygon class="st0" points="153.47 103.07 154.97 103.07 155.77 106.05 156.58 103.07 158.08 103.07 158.08 107.88 157.18 107.88 157.18 103.6 156.02 107.88 155.52 107.88 154.36 103.6 154.36 107.88 153.47 107.88 153.47 103.07"/>
      <rect class="st0" x="159.25" y="103.07" width=".95" height="4.81"/>
      <polygon class="st0" points="161.39 103.07 162.39 103.07 164.37 106.3 164.37 103.07 165.31 103.07 165.31 107.88 164.37 107.88 162.34 104.53 162.34 107.88 161.39 107.88 161.39 103.07"/>
    </g>
  </g>
</svg>