<?xml version="1.0" encoding="UTF-8"?>
<svg id="Layer_1" xmlns="http://www.w3.org/2000/svg" version="1.1" viewBox="0 0 300 250">
  <!-- Generator: Adobe Illustrator 29.8.2, SVG Export Plug-In . SVG Version: 2.1.1 Build 3)  -->
  <defs>
    <style>
      .st0 {
        fill: #fff;
        stroke: #663693;
        stroke-miterlimit: 10;
      }
    </style>
  </defs>
  <g id="Layer_3">
    <g>
      <path class="st0" d="M88.94,141.06c-.06,0-.12,0-.18-.03-13.6-4.98-19.5-12.11-19.74-12.41-.07-.09-.11-.21-.11-.33v-7.26c0-.29.23-.52.51-.52h12.19v-3.96h-9.47c-.29,0-.52-.23-.52-.52v-12.71c0-.28.23-.52.52-.52h21.34c.28,0,.52.23.52.52s-.23.52-.52.52h-20.82v11.68h9.47c.29,0,.52.23.52.52v4.99c0,.28-.23.52-.52.52h-12.2v6.55c.89,1.01,6.89,7.46,19.18,11.97.27.1.41.4.31.66-.08.21-.27.34-.48.34"/>
      <path class="st0" d="M73.73,121.54c-.29,0-.52-.23-.52-.52v-4.99c0-.29.23-.52.52-.52s.52.23.52.52v4.99c0,.29-.23.52-.52.52"/>
      <path class="st0" d="M93.99,239.14c.15.27.82,1.19,2.6,1.21l4.85-1.3c-.95-.89-2.35-2.67-2.35-5.44,0-1.67-.54-9.43-1.11-17.63-.76-10.9-1.62-23.26-1.62-26.85,0-1.76-.2-6.84-.45-13.27-.65-16.56-1.73-44.28-.91-53.97,1.13-13.28,2.45-18.48,2.51-18.69.06-.23.27-.39.5-.39h6.28c-1.46-.95-3.8-2.33-5.45-2.61-2.28-.38-5.76,3.46-6.44,7.08-.65,3.49-2.94,31.44-2.94,34.63,0,2.21.78,24.51,1.25,37.83.16,4.52.29,8.12.34,9.81.22,6.56,2.79,47.19,2.94,49.59M96.66,241.39c-2.13,0-3.11-1.05-3.47-1.59h-16.5c-.28,0-.51-.22-.52-.5l-1.6-66.96v-39.04c0-.29.23-.52.52-.52s.52.23.52.52v39.03l1.59,66.44h15.74c-.32-5.03-2.71-42.86-2.92-49.18-.05-1.69-.18-5.3-.34-9.81-.47-13.33-1.25-35.64-1.25-37.86,0-3.21,2.3-31.32,2.96-34.82.73-3.88,4.57-8.41,7.63-7.9,2.82.47,7.08,3.59,7.26,3.72.18.13.25.37.18.58s-.27.35-.49.35h-7.54c-.32,1.43-1.44,6.94-2.39,18.14-.82,9.62.27,37.3.91,53.84.25,6.44.45,11.52.45,13.3,0,3.55.86,15.89,1.62,26.78.6,8.58,1.11,16,1.11,17.7,0,3.53,2.68,5.22,2.71,5.24.17.11.27.31.24.52-.03.2-.18.37-.38.42l-5.9,1.59s-.09.02-.13.02"/>
      <path class="st0" d="M200.61,103.84h-94.65c-.29,0-.52-.23-.52-.52s.23-.52.52-.52h94.65c.29,0,.52.23.52.52s-.23.52-.52.52"/>
      <path class="st0" d="M204.02,239.8h-101.46c-.28,0-.52-.23-.52-.52s.23-.52.52-.52h101.46c.28,0,.51.23.51.52s-.23.52-.51.52"/>
      <path class="st0" d="M204.52,240.36h6l-2.71-135.21c0-.09.02-.18.06-.26.11-.2,1.02-1.81,2.25-2.14-.68-1.05-2.08-2.74-4.03-2.58-2.32.19-4.97,1.08-4.97,6.33,0,4.77,3.16,125.02,3.39,133.85M211.05,241.39h-7.03c-.28,0-.51-.22-.52-.5-.03-1.3-3.4-129.44-3.4-134.38,0-4.62,1.94-7.03,5.92-7.36,3.25-.27,5.14,3.24,5.46,3.87.07.09.1.19.1.31,0,.29-.22.5-.52.52-.09,0-.16-.02-.24-.05-.08-.04-.17-.07-.25-.07-.62,0-1.38.98-1.72,1.55l2.72,135.59c0,.14-.05.28-.15.37-.1.1-.23.16-.37.16"/>
      <path class="st0" d="M209.32,154.92c-.22,0-.43-.15-.5-.38-.08-.28.09-.56.36-.64,16.66-4.65,20.38-8.96,20.88-9.65v-5h-12.87c-.29,0-.52-.23-.52-.52v-4.77c0-.29.23-.52.52-.52h12.87v-29.61h-19c-.29,0-.52-.23-.52-.52s.23-.52.52-.52h19.52c.29,0,.52.23.52.52v30.64c0,.29-.23.52-.52.52h-12.88v3.73h12.88c.29,0,.52.23.52.52v5.68c0,.08-.02.17-.06.24-.11.2-2.88,5.03-21.57,10.25-.04,0-.1.02-.14.02"/>
      <path class="st0" d="M173.16,159.91h-.7c-.27,0-.48-.2-.51-.47l-.18-2.03h-11.27v1.98c0,.29-.23.52-.52.52-28.61,0-64.49-16.44-64.85-16.61-.26-.12-.37-.42-.25-.68s.43-.37.69-.25c.35.16,35.61,16.32,63.9,16.51v-1.98c0-.29.23-.52.51-.52h12.26c.27,0,.49.21.52.47l.18,2.03h.22c15.93,0,28.37-3.58,28.5-3.62.28-.08.56.08.64.35.09.27-.07.56-.35.64-.13.04-12.71,3.66-28.79,3.66"/>
      <path class="st0" d="M167.7,170.78c-4.95,0-7.11-1.67-7.71-2.25h-9.99c-.29,0-.52-.23-.52-.52v-5.9c0-.29.23-.51.52-.51h9.47v-2.21c0-.28.23-.52.51-.52s.51.23.51.52v2.72c0,.29-.23.52-.51.52h-9.47v4.87h9.7c.16,0,.3.07.4.19.02.02,1.79,2.06,7.09,2.06,3.16,0,4.19-.63,4.53-1.01.2-.23.18-.4.18-.41-.03-.15,0-.3.1-.42s.25-.18.41-.18h11.51v-6.46h-11.74c-.28,0-.51-.23-.51-.52v-1.36c0-.28.23-.52.51-.52s.52.23.52.52v.85h11.74c.29,0,.51.23.51.52v7.49c0,.28-.23.51-.51.51h-11.57c-.05.18-.15.38-.31.59-.77.95-2.57,1.44-5.37,1.44"/>
      <path class="st0" d="M228.53,239.8h-17.48c-.29,0-.51-.23-.51-.52s.23-.52.51-.52h16.96v-92.39c0-.29.23-.52.52-.52s.52.23.52.52v92.9c0,.29-.23.52-.52.52"/>
      <path class="st0" d="M104.25,102.68c-.06,0-.12-.01-.18-.03-.27-.1-.4-.4-.3-.67,1.5-3.95,0-7.9-.56-9.13-.65.27-2.07.98-3.93,2.69-2.57,2.36-3.26,5.6-3.27,5.63-.05.28-.32.46-.61.4-.28-.06-.46-.33-.4-.61.03-.15.76-3.6,3.58-6.18,2.79-2.56,4.68-3.05,4.76-3.07.23-.05.47.05.58.25.11.21,2.79,5.21.81,10.39-.08.21-.28.33-.48.33"/>
      <path class="st0" d="M228.53,139.25c-.29,0-.52-.23-.52-.52v-4.77c0-.29.23-.52.52-.52s.52.23.52.52v4.77c0,.29-.23.52-.52.52"/>
      <path class="st0" d="M201.53,102.68c-.18,0-.35-.1-.45-.26-.09-.17-2.28-4.15.29-8.22.04-.06.09-.11.14-.15,1-.7,2.23-.71,3.57-.02,2.41,1.25,4.77,4.68,4.76,6.93,0,.28-.23.51-.52.51s-.51-.23-.51-.52c0-1.68-1.98-4.85-4.21-6.01-.94-.49-1.75-.53-2.41-.11-2.16,3.53-.23,7.04-.21,7.07.14.25.05.56-.2.7-.08.04-.17.07-.25.07"/>
      <path class="st0" d="M105.04,88.97s.06.02.09.03c2.32.97,3.56-.47,3.61-.53,4.67-5.46,20.27-45.75,21.93-50.46.74-2.11,2.94-8.14,4.76-13.14-1.54,3.25-3.27,7.13-5.05,11.12-1.23,2.74-2.49,5.58-3.74,8.31-3.01,6.59-10.36,20.07-15.74,29.91-3.17,5.81-5.67,10.39-6.23,11.63-.5,1.11-.62,2-.34,2.56.22.46.66.57.71.58M103.47,92.72c-.08,0-.16-.02-.24-.06-.25-.13-.35-.45-.21-.7l1.2-2.23c-.29-.18-.59-.45-.79-.85-.44-.86-.34-2.03.31-3.46.58-1.28,3.08-5.88,6.26-11.7,5.36-9.82,12.71-23.28,15.7-29.84,1.24-2.73,2.51-5.56,3.74-8.3,3.47-7.76,6.75-15.1,8.78-18.31.14-.22.43-.3.67-.19.23.11.35.39.26.64-.06.17-6.14,16.84-7.49,20.65-.98,2.78-17.07,44.89-22.12,50.78-.55.68-2.14,1.7-4.35.99l-1.25,2.33c-.09.17-.27.27-.46.27"/>
      <path class="st0" d="M144.6,14.59c.39,0,.8.01,1.23.04,1.8.11,7.22,6.49,16.11,18.95,6.85,9.61,13.61,19.87,15.07,22.63,2.88,5.42,17.7,29.26,19.91,31.79.41.47.74.86,1.02,1.2.45.54.88,1.05,1.06,1.16.03-.02.08-.06.15-.13-1.92-8.95-15.04-28.48-26.62-45.74-3-4.46-5.83-8.68-8.32-12.5-10.66-16.35-15.32-17.71-18.84-17.71-.26,0-.5,0-.75.01h-.29c-.62.02-1.22.18-1.77.43.62-.09,1.3-.14,2.04-.14M199,91.41c-.57,0-.95-.45-1.86-1.54-.27-.33-.6-.72-1-1.18-2.23-2.56-17.14-26.54-20.04-31.99-3.38-6.36-27.12-40.84-30.33-41.04-2.93-.17-4.98.29-6.11,1.4-.37.43-.58.75-.58.75-.16.23-.47.3-.7.16-.24-.15-.32-.46-.18-.7.19-.34.43-.64.7-.92.98-1.14,2.96-3.04,5.41-3.09h.29c.25-.01.51-.02.77-.02,2.93,0,7.84,0,19.7,18.19,2.49,3.81,5.32,8.02,8.31,12.48,11.75,17.5,25.08,37.33,26.83,46.37.03.16-.02.32-.12.44-.32.36-.64.68-1.09.68"/>
      <path class="st0" d="M201.81,94.99c-.17,0-.33-.08-.43-.23l-2.46-3.73c-.16-.24-.09-.56.15-.72.24-.16.56-.09.72.15l2.46,3.73c.16.24.09.56-.15.71-.09.06-.18.09-.28.09"/>
    </g>
  </g>
</svg>