<?xml version="1.0" encoding="UTF-8"?>
<svg id="Layer_1" xmlns="http://www.w3.org/2000/svg" version="1.1" viewBox="0 0 300 250">
  <!-- Generator: Adobe Illustrator 29.8.2, SVG Export Plug-In . SVG Version: 2.1.1 Build 3)  -->
  <defs>
    <style>
      .st0 {
        fill: none;
        stroke: #663693;
        stroke-linecap: round;
        stroke-linejoin: round;
      }
    </style>
  </defs>
  <g id="Layer_8">
    <path class="st0" d="M272.44,168.66v26.08s-1.72,1.7-2.75,0l-.12-15.49M267.62,168.05l-3.87,30.93s1.32,1.89,3.39,0l3.76-30.51M195.41,179.25l-.52,7.98s1.25,1.34,2.32,0l.82-9.22M205.7,174.56l.96,5.06s-.75,1.5-2.17.58l-.83-4.87M200.37,161.31l1.78,9.3M202.8,159.77l1.97,11.17M199.04,170.24l1.6-10.75M197.88,159.14l-1.34,10.8M279.02,169.51v-3.36M189.35,155.7v2.35l89.67,11.46,4.24-2.87M286.74,165.73v1.32M179.16,152.82l107.58,12.9,7.44-4.9M199.04,135.86s-1.7,2.71-1.89,4.27c-.19,1.57-.42,2.51-.42,2.51M194.14,137.65s1.42,3.54,1.51,4.97M193.01,142.65s-1.13-1.79-1.7-2.45l1.51.56s-.57-2.92-2.55-4.8l-1.97-1.88,2.35,1.41s-3.67-5.93-5.28-8.95l6.5,7.82s-1.7-6.88-1.61-8.57c0,0,3.49,11.21,3.87,11.87l.38.66s-.38-6.5-.56-10.36c-.19-3.86.19-7.42.19-7.42,0,0,1.98,11.09,3.39,12.98,1.41,1.88,1.51,2.35,1.51,2.35l.66-7.25v7.35s8.2-10.46,10.74-12.25c0,0-9.7,12.34-9.99,13.57l-.28,1.22s4.33-4.05,6.5-5.65l-4.52,5.84s1.51,0,2.26-.09c.75-.1-3.31,2.15-3.96,3.76M191.88,144.43s4.8,1.6,9.61.75M191.31,141.8s.28.85,3.11.85,7.73-.42,7.73-.42M192.25,141.19s-2.07-.24-1.98.8c.09,1.04.38,1.89.38,1.89l.61.47.99,7.73.66.75s2.83,1.6,6.78,0l1.79-7.63,1.32-.66v-2.73l-1.41-.61M200.83,149.15l93.36,11.68v1.13l-7.44,5.09-107.58-12.53v-1.69l12.91-3.77M184.71,181.39l1.13,12.32s1.51,1.51,2.83,0l-1.29-13.63M181.91,179.25l-1.81,16.53s.85,1.79,2.83.66c2.07-15.83,1.88-16.75,1.88-16.75M145.05,119.73c0,.94-.76,1.7-1.7,1.7s-1.7-.76-1.7-1.7.76-1.7,1.7-1.7,1.7.76,1.7,1.7ZM157.21,112.4s1.46,7.06-2.09,7.91c-3.56.85-10.15-1.13-10.15-1.13M147.75,94.7v-1.61s.38-1.41,1.64-1.41,2.09.87,2.07,1.51l-.02.64M151.46,89.61c0,1.14-.93,2.07-2.07,2.07s-2.07-.93-2.07-2.07.93-2.07,2.07-2.07,2.07.93,2.07,2.07ZM142.6,117.59s1.82.66,5.81-.56c3.99-1.22,19.62-4.52,21.04-7.63M169.45,109.39l-11.3-15.69s-12.44-1.7-17.38,6.22c2.12,16.39,1.84,17.66,1.84,17.66,0,0,7.06-4.99,12.51-6.6,5.44-1.6,11.52-2.87,14.34-1.6h0ZM150.56,116.43s-1.17,40.54-1.17,50.88c-2.95,1.03-3.14-.29-3.14-.29l1.04-34.24.2-15.69M150.86,174.56l.96,13.12s.73,1.17,2.2,0l-1.07-12.81M147.27,174.02l-2.41,15.94s1.54,1.69,2.93,0l1.94-15.56M192.15,179.62v1.17M126.97,169.51l65.18,10.11,16.57-8.21M134.73,172.12l-1.14,12.08M144.42,162.32v1.33M149.39,164.23l59.32,7.18v1.54l-16.57,7.84-64.88-9.79-.29-1.49,17.16-5.91,2.27.33M133.63,160.69v5.81M123.59,159.38l.12,17.69,1.35,10.61M124.62,169.08v18.61M106.73,183.02l14.22-5.38s2.12-.91,3.81-.42c1.69.49,15.54,2.83,15.54,2.83,0,0,1.98.67.44,1.26s-15.69,6.38-15.69,6.38c0,0-.37.07-3.3-.59s-13.8-3.04-13.8-3.04M113.73,161.88l.7,17.42v.82l17.38,4.82M103,164.81l2.79,16.27s.81,2.79,2.57,3.08,15.69-1.39,15.69-1.39l17.3-1.97.88-7.79M103,164.81l18.25-4.99s1.54-.66,3.3-.37c1.76.29,19.8,2.64,19.8,2.64,0,0,.59.74-1.39,1.47s-17.23,5.35-17.23,5.35c0,0-.81.37-3.37,0-2.57-.37-19.35-4.11-19.35-4.11h-.01ZM66.05,170.04v-1.64M70.73,167.93v1.88l-4.68.23-2.1-1.06M71.76,156.02h-6.01M60.94,153.3l4.81,2.72v12.44M60.94,154.14v-.84h5.98l4.84,2.72v11.79l-6.01.65-.81-1.04M59.23,171v-1.64M63.94,168.62v1.91l-4.72.47-1.88-1.19M64.94,156.02l-6.14.62M54.14,154.14l5.08,2.5-.42,12.79M54.14,155.13v-.99l6.11-.33,4.69,2.21v12.44l-6.65,1.04M57.35,169.51l-5.65.53v-12.79M58.29,156.87l-6.59.38-1.7-1.23M50,154.89h3.58l4.71,1.98v12.64h-.94l-.38,2.11h-4.71l-.56-1.57-1.7-.53M71.38,142.5v13.52M68.46,142.77v11.36M68.46,120.36v18.04s-.02.85,1.4.85,1.51-1.13,1.51-1.13v-17.92M29.55,139.63l-3.76.28M49.15,137.09l19.32-1.27M33.42,141.06s3.3-14.89,1.04-18.9M26.52,135.3s-.12-11.62,3.9-12.92M32.14,141.06s-7.04-12.34.69-18.68M34.83,141.14s6.22-16.42,1.74-19.09M36.43,141.06s6.6-15.04,4.67-19.16M38.3,141.02s7.68-10.87,6.67-19.41M40.67,140.89s9-11.08,8.59-19.55M44.16,140.89s6.02-5.59,7.42-15.2M25.79,133.6s2.67,7.44,7.03,7.54l12.75-.28s6.12-4.05,6.12-12.18c0-7.43-1.7-7.33-1.7-7.33M64.69,175.96l-.75,12.57s1.7,1.51,2.73,0l.89-11.02M67.39,175.61l1.45,15.74s.38.94,2.07.75,1.41-1.41,1.41-1.41l-1.69-15.5M25.65,180.95l-.42,13.41s.94,1.4,3.3.37M27.3,180.74l1.51,17.2s.85.66,2.45.38,1.57-1.22,1.57-1.22l-1.57-16.86M23.16,178.99v2.28l52.28-6.69v-2.26M21.08,177.22v1.97M13.07,171.38l8.01,5.84,60.86-7.71M22.21,170.44l-9.14.94v2.64l7.73,5.28,61.14-7.91v-1.87l-10.27-5.57M50,146.22v24.97l-6.22,1.13M42.83,146.68l7.17-.46-1.23-1.61M43.78,147.26l-3.11-1.89M36.43,148.86l.28,25.72M35.21,172.89l1.51,1.7,7.06-1.7v-25.63l-7.21,1.6-3.75-2.18M48.26,166.38c0,.57-.47,1.04-1.04,1.04s-1.04-.47-1.04-1.04.47-1.04,1.04-1.04,1.04.47,1.04,1.04ZM41.1,167.42c0,.57-.47,1.04-1.04,1.04s-1.04-.47-1.04-1.04.46-1.04,1.04-1.04,1.04.47,1.04,1.04ZM32.82,168.46c0,.58-.47,1.04-1.04,1.04s-1.04-.47-1.04-1.04.47-1.04,1.04-1.04,1.04.47,1.04,1.04ZM27.3,174.58l7.91-1.32v-25.06M25.65,173.83l1.65.75v-25.34M25.65,148.11l1.65,1.13,7.91-1.04-3.11-1.98M22.21,147.1v27.29s1.72,1.32,3.44,0v-27.71M19.45,147.26v-2.07M12.51,140.95v1.89l6.95,4.52,62.48-5.84v-1.88M71.48,135.3l10.46,4.33-62.48,5.56-6.95-4.24,9.7-.71M22.21,122.81v19.55s.47.47,2.26.47c1.37,0,1.32-.94,1.32-.94v-19.27M63.85,108.5s.29-3.73,1.98-4.38l.57.66-.38,1.53-.89,3.65s-.99,1.13-1.27-1.46h-.01ZM62.53,110.8c-.19,1.31-.18-2.49-.87-3.63-.34-.55-2.56-3.04-1.78-3.36,0-.21.14-.44.14-.63.54-.05,1.08.13,1.57-.01,0,0-.86,1.13-.43,1.41.43.28,1,.85,1,.85h.38s-.19,1.32,0,1.56c.19.23.19,2.5,0,3.82h-.01ZM61.59,110.71c-.07-.79-.4-1.55-.87-2.22-.53-.74-1.5-1.28-1.88-2.01-.32-.04-.46-.17-.75-.32-.36-.19-.44-.2-.87-.35-.54-.18-.84-.36-1.32-.65-.89-.54-3.17-.37-3.44-1.43-.22-.86.53-.75.89-1.23.33-.44.1-.79.24-1.33.31-1.19.59-.4,1.38-.64.51-.16.59-.68.78-1.21.52.02,1.29.02,1.7-.37.21-.19.08-.6.26-.8.95-1.02,1.44-.46,2.16.17,0-.1.02-.2.04-.3,1.08,0,1.91,1.26,2.88.83-.45-1.57,1.73-2.34,1.91-.63-.04-.18.03-.36.04-.51.69.03,1.61-.34,2.1.18.42.45.28,1.33.85,1.71,1.11.74,2.39-.56,2.18,1.3-.67.28-.18,1.41-.64,1.92-.47.52-1.41.05-1.71.65-.44.87.89.79,1.05,1.3.2.65-.49,1.06-1.04,1.04,0,0-1.32,1.22-1.23,1.88.1.66-.47,3.3-.47,3.3M59.2,114.9h1.59M56.59,111.56l2.45-.57c-.75,0-2.54-.56-2.54-.56l2.54-.94c-1.98-1.51-3.3.1-3.3.1-.38-1.98,2.92-2.64,2.92-2.64-1.41-.56-2.26-.09-4.13,1.56-.93-1.46,0-3.06,0-3.06-1.78.28-.96,2.45-1.71,1.98-.75-.47-2.83-.38-1.78,0s1.78,2.64,1.78,2.64c0,0-3.11-1.98-3.56-1.51,2.47.09,2.43,1.88,2.43,1.88l-.85.1c-.85.09,0,1.04,0,1.04M59.8,112.22l.75.47.47,4.43h5.84v-4.71l1.04-.38v-1.04h-8.1v.57M49.27,111.56l.73,6.03,8.67.28,1.13-6.31h-10.53ZM19.45,122.96v-2.12M11.47,117.59v1.63l7.98,3.74,61.4-3.25v-2.12M49.77,115.68l-38.3,1.9,8.06,3.25,61.33-3.25-13.71-2.68M263.99,52.87h9.75v6.78h-9.75M263.99,140.05c0,.63-.5,1.13-1.13,1.13h-32.64c-.63,0-1.13-.51-1.13-1.13V51.31c0-.63.51-1.13,1.13-1.13h32.64c.63,0,1.13.51,1.13,1.13v88.74ZM256.97,96.44c-.03.63-.56,1.11-1.18,1.08l-19.76-.9c-.62-.03-1.11-.56-1.08-1.18l1.86-40.8c.03-.63.55-1.11,1.18-1.08l19.76.9c.62.03,1.11.56,1.08,1.18l-1.86,40.8ZM46.42,59.65h182.67M44.54,52.87h184.55M22.58,52.87H5.82v5.72h16.77M249.44,56.19c0,.82-.67,1.48-1.48,1.48s-1.48-.66-1.48-1.48.67-1.48,1.48-1.48,1.48.67,1.48,1.48ZM218.91,56.19c0,.82-.67,1.48-1.48,1.48s-1.48-.66-1.48-1.48.67-1.48,1.48-1.48,1.48.67,1.48,1.48ZM189.52,56.19c0,.82-.66,1.48-1.48,1.48s-1.48-.66-1.48-1.48.67-1.48,1.48-1.48,1.48.67,1.48,1.48ZM158.15,56.19c0,.82-.67,1.48-1.48,1.48s-1.48-.66-1.48-1.48.66-1.48,1.48-1.48,1.48.67,1.48,1.48ZM128.63,56.19c0,.82-.67,1.48-1.48,1.48s-1.48-.66-1.48-1.48.66-1.48,1.48-1.48,1.48.67,1.48,1.48ZM98.06,56.19c0,.82-.67,1.48-1.48,1.48s-1.48-.66-1.48-1.48.66-1.48,1.48-1.48,1.48.67,1.48,1.48ZM66,56.19c0,.82-.67,1.48-1.48,1.48s-1.48-.66-1.48-1.48.66-1.48,1.48-1.48,1.48.67,1.48,1.48ZM33.94,55.62c0,.82-.67,1.48-1.48,1.48s-1.48-.67-1.48-1.48.66-1.48,1.48-1.48,1.48.66,1.48,1.48ZM45.92,98.67v1.05c0,.62-.51,1.13-1.13,1.13h-19.69c-.63,0-1.13-.51-1.13-1.13v-4.73M44.54,55.62h.75c.63,0,1.13.5,1.13,1.13v40.98c0,.62-.5,1.13-1.13,1.13h-19.69c-.62,0-1.13-.51-1.13-1.13v-2.75M44.54,93.85c0,.63-.51,1.13-1.13,1.13h-19.69c-.63,0-1.13-.51-1.13-1.13v-40.98c0-.62.51-1.13,1.13-1.13h19.69c.63,0,1.13.51,1.13,1.13v40.98Z"/>
  </g>
</svg>