<?xml version="1.0" encoding="UTF-8"?>
<svg id="Layer_23" xmlns="http://www.w3.org/2000/svg" version="1.1" viewBox="0 0 300 250">
  <!-- Generator: Adobe Illustrator 29.8.2, SVG Export Plug-In . SVG Version: 2.1.1 Build 3)  -->
  <defs>
    <style>
      .st0 {
        fill: none;
        stroke: #663693;
        stroke-linecap: round;
        stroke-linejoin: round;
      }
    </style>
  </defs>
  <path class="st0" d="M172.16,72.3v-5.34s0-.88,1.15,0c1.16.88,3.61,2.47,3.61,2.47,0,0,.69.78,0,1.4-.69.62-3.84,1.92-3.84,1.92,0,0-.92.46-.92-.46ZM172.7,76.68v-2.77s7.07.85,7.07-4-5.38-5.15-7.53-4.84c-2.15.31-4.07,2.38-3.84,6.07.23,3.69,4.3,5.53,4.3,5.53ZM218.88,18.55s18.14-1.65,27.6,7.88c9.45,9.53,8.85,19.45,8.85,19.45M190.19,54.02s-2.31-6.53,1-12.25M182.85,52.78s9.53,1.54,13.68,2.46c4.15.92,22.75,6.3,32.59,5.38,9.84-.92,17.98-2.77,25.2-13.06,7.22-10.3-2.46-25.82-13.22-28.43-10.76-2.61-24.7-2.15-34.73,4.3-10.03,6.46-17.37,21.52-18.14,25.82M149.14,59.06s14.19-8.74,30.79-5.82c16.6,2.92,42.88,10.3,53.18,9.38,10.3-.92,23.42-7.4,24.77-21.22M136.12,83.98s-1.08-.31,0-2.92,5.07-20.9,21.52-26.9c16.44-5.99,26.74-3.84,26.74-3.84l2.31,2.77M186.84,79.83s.46,40.73,0,48.57c-.46,7.84-2,15.83-2,15.83,0,0-2.92,24.13-20.59,23.98-22.59-1.08-33.97-17.37-35.2-37.19-1.23-19.83,6-45.95,6-45.95l1.07-1.08s16.91-3.69,25.67-3.53c8.76.15,24.28-.62,28.28-.62s44.94.37,57.02-12.6c10.38-11.14,10.29-19.43,10.29-19.43l.77-9.84s-.61-15.77-18.28-21.45c-17.68-5.69-36.12,6.45-37.96,7.84-1.85,1.38-14.92,13.85-15.84,27.99M52.62,193.93s13.24,20.18,26.95,29.32c13.71,9.13,33.46,16.87,48.87,3.11,14.18-12.66,13.44-18.22,13.44-18.22M48.91,187.39s19.02,37.81,46.8,45.76c27.78,7.95,44.38-11.87,45.99-20.98,1.61-9.11-5.3-21.79-17.29-32.51-11.99-10.72-43.56-33.43-43.56-33.43M84.2,143.79s2.2,3.95,0,4.99M60.81,126.55s1.35-9.47,8.73-16.62c7.38-7.14,22.31-11.7,22.31-11.7M63.34,129.62s-6.12-5.04-4.39-13.81c1.73-8.76,5.16-17.08,15.68-24.21,10.51-7.13,20.98-12.33,27.67-9.34,2.3,1.13-.46,5.19-1.61,6.68-1.16,1.5-16.47,17.13-16.47,17.13M62.22,130.97s-2.58-1.79-4.66-8.13M60.54,132.98s-2.64-6.79-2.99-10.14c-.35-3.34-2.53-12.33,5.53-22.59s35.16-24.9,40.92-17.98M48.91,187.39s-7.61-13.72-7.03-23.05c.57-9.34,10.14-22.25,13.02-24.9,2.88-2.65,20.63-25.13,25.47-29.86,4.84-4.72,16.95-14.52,19.59-18.1,2.65-3.57,6.57-5.65,4.03-9.22l9.22,18.1s.69,3.11-1.5,7.84c-2.19,4.72-11.88,16.94-14.18,19.59-2.3,2.65-12.68,16.14-14.87,17.29-2.19,1.15-8.18,5.89-9.8,7.33-1.61,1.43-15.22,17.69-19.13,24.95-3.92,7.26-4.84,10.03-4.84,10.03ZM70.24,150.85s-4.04,2.99-6.34.69c-2.3-2.3-3.34-4.03-1.5-6.11,1.84-2.08,6.8-4.84,8.41-2.88s1.15,4.03,0,5.07c-1.15,1.04-2.88,1.38-2.19,2.08.69.69,1.62,1.15,1.62,1.15ZM63.9,146.24l5.53-2.54-2.77,5.07-2.77-2.54Z"/>
</svg>